<?xml version="1.0" encoding="utf-8"?>
<!-- Generator: Adobe Illustrator 17.0.0, SVG Export Plug-In . SVG Version: 6.00 Build 0)  -->
<!DOCTYPE svg PUBLIC "-//W3C//DTD SVG 1.1//EN" "http://www.w3.org/Graphics/SVG/1.1/DTD/svg11.dtd">
<svg version="1.1" id="Layer_1" xmlns="http://www.w3.org/2000/svg" xmlns:xlink="http://www.w3.org/1999/xlink" x="0px" y="0px"
	 width="54px" height="54px" viewBox="-19 -19 54 54" enable-background="new -19 -19 54 54" xml:space="preserve">
<path fill="#FFFFFF" d="M35,8C35-6.912,22.912-19,8-19S-19-6.912-19,8S-6.912,35,8,35S35,22.912,35,8z M9.687,19.813
	C9.687,20.744,8.932,21.5,8,21.5c-0.932,0-1.688-0.756-1.688-1.688V0.261L-0.93,7.507c-0.66,0.66-1.73,0.66-2.39,0
	s-0.66-1.73,0-2.39L6.805-5.007c0.658-0.66,1.727-0.661,2.386-0.003c0.001,0.001,0.002,0.002,0.003,0.003L19.32,5.118
	c0.66,0.66,0.66,1.73,0,2.39c-0.66,0.66-1.73,0.66-2.389,0L9.687,0.261V19.813z"/>
</svg>
