<?xml version="1.0" encoding="utf-8"?>
<!-- Generator: Adobe Illustrator 17.0.0, SVG Export Plug-In . SVG Version: 6.00 Build 0)  -->
<!DOCTYPE svg PUBLIC "-//W3C//DTD SVG 1.1//EN" "http://www.w3.org/Graphics/SVG/1.1/DTD/svg11.dtd">
<svg version="1.1" id="Layer_1" xmlns="http://www.w3.org/2000/svg" xmlns:xlink="http://www.w3.org/1999/xlink" x="0px" y="0px"
	 width="30px" height="30px" viewBox="0 0 30 30" enable-background="new 0 0 30 30" xml:space="preserve">
<path fill="#FFFFFF" d="M28.75,0h-27.5C0.56,0,0,0.56,0,1.25V28.75C0,29.44,0.56,30,1.251,30h14.687V18.75h-3.75v-4.688h3.75v-3.75
	c0-3.875,2.453-5.782,5.91-5.782c1.656,0,3.079,0.124,3.493,0.178v4.05L22.943,8.76c-1.88,0-2.318,0.893-2.318,2.204v3.098h4.688
	l-0.938,4.688h-3.75L20.7,30h8.05c0.69,0,1.25-0.56,1.25-1.25V1.25C30,0.56,29.44,0,28.75,0z"/>
</svg>
