<svg width="74" height="74" viewBox="0 0 74 74" fill="none" xmlns="http://www.w3.org/2000/svg">
<path fill-rule="evenodd" clip-rule="evenodd" d="M71.1732 66.6003V32.067C71.1732 30.1044 70.3936 28.2222 69.0058 26.8344C67.618 25.4466 65.7358 24.667 63.7732 24.667H10.212C8.24941 24.667 6.36719 25.4466 4.97942 26.8344C3.59165 28.2222 2.81201 30.1044 2.81201 32.067V66.6003C2.81201 68.5629 3.59165 70.4451 4.97942 71.8329C6.36719 73.2207 8.24941 74.0003 10.212 74.0003H63.7732C65.7358 74.0003 67.618 73.2207 69.0058 71.8329C70.3936 70.4451 71.1732 68.5629 71.1732 66.6003ZM66.2399 32.067V66.6003C66.2399 67.2545 65.98 67.8819 65.5174 68.3445C65.0548 68.8071 64.4274 69.067 63.7732 69.067H10.212C9.55781 69.067 8.9304 68.8071 8.46781 68.3445C8.00522 67.8819 7.74535 67.2545 7.74535 66.6003V32.067C7.74535 31.4128 8.00522 30.7854 8.46781 30.3228C8.9304 29.8602 9.55781 29.6003 10.212 29.6003H63.7732C64.4274 29.6003 65.0548 29.8602 65.5174 30.3228C65.98 30.7854 66.2399 31.4128 66.2399 32.067Z" fill="black"/>
<path fill-rule="evenodd" clip-rule="evenodd" d="M36.9926 40.5225C35.2506 40.5225 33.5476 41.039 32.0991 42.0068C30.6507 42.9746 29.5217 44.3501 28.8549 45.9595C28.1881 47.5689 28.0135 49.3399 28.3532 51.0485C28.6929 52.7571 29.5316 54.3266 30.7632 55.5586C31.9949 56.7906 33.5641 57.6297 35.2727 57.9698C36.9812 58.31 38.7522 58.1359 40.3618 57.4696C41.9713 56.8033 43.3472 55.6747 44.3154 54.2264C45.2836 52.7782 45.8006 51.0754 45.8011 49.3334C45.8004 46.9972 44.8723 44.7569 43.2206 43.1047C41.5689 41.4526 39.3288 40.5238 36.9926 40.5225ZM36.9926 45.4558C37.7589 45.4558 38.5081 45.683 39.1453 46.1087C39.7825 46.5344 40.2792 47.1395 40.5725 47.8474C40.8659 48.5554 40.9428 49.3344 40.7935 50.086C40.6441 50.8377 40.2753 51.5281 39.7336 52.0702C39.1919 52.6122 38.5017 52.9815 37.7501 53.1313C36.9986 53.2811 36.2195 53.2047 35.5114 52.9118C34.8032 52.6189 34.1979 52.1226 33.7718 51.4856C33.3457 50.8487 33.118 50.0997 33.1175 49.3334C33.1181 48.3056 33.5265 47.3201 34.2531 46.5931C34.9796 45.8661 35.9648 45.4571 36.9926 45.4558Z" fill="black"/>
<path fill-rule="evenodd" clip-rule="evenodd" d="M14.6668 29.6H14.7926L14.8987 29.5877C15.5325 29.5467 16.1277 29.2683 16.5652 28.8078C17.0028 28.3474 17.2506 27.7389 17.2593 27.1037V24.6667C17.2593 19.4331 19.3383 14.4138 23.039 10.7131C26.7397 7.01238 31.759 4.93333 36.9926 4.93333C42.2262 4.93333 47.2455 7.01238 50.9462 10.7131C54.6469 14.4138 56.7259 19.4331 56.7259 24.6667V27.1333C56.7259 27.1901 56.7259 27.2493 56.7259 27.306V27.38V27.4392C56.769 27.917 56.9674 28.3675 57.2908 28.7219C57.5239 28.9988 57.8152 29.2211 58.1438 29.3728C58.4725 29.5246 58.8306 29.6022 59.1926 29.6C59.8426 29.5711 60.4577 29.298 60.9151 28.8352C61.3724 28.3724 61.6382 27.754 61.6593 27.1037V24.6667C61.6593 18.1247 59.0605 11.8506 54.4346 7.2247C49.8087 2.5988 43.5346 0 36.9926 0C30.4506 0 24.1765 2.5988 19.5506 7.2247C14.9247 11.8506 12.3259 18.1247 12.3259 24.6667V27.1333C12.3259 27.1901 12.3259 27.2493 12.3259 27.306V27.38V27.4392C12.369 27.917 12.5674 28.3675 12.8908 28.7219C13.11 28.9831 13.3811 29.1959 13.6868 29.3471C13.9924 29.4982 14.3261 29.5843 14.6668 29.6Z" fill="black"/>
</svg>
