<?xml version="1.0" encoding="utf-8"?>
<!-- Generator: Adobe Illustrator 17.0.0, SVG Export Plug-In . SVG Version: 6.00 Build 0)  -->
<!DOCTYPE svg PUBLIC "-//W3C//DTD SVG 1.1//EN" "http://www.w3.org/Graphics/SVG/1.1/DTD/svg11.dtd">
<svg version="1.1" id="Layer_1" xmlns="http://www.w3.org/2000/svg" xmlns:xlink="http://www.w3.org/1999/xlink" x="0px" y="0px"
	 width="72px" height="72px" viewBox="-28 -28 72 72" enable-background="new -28 -28 72 72" xml:space="preserve">
<path d="M21.5-1c0,7.456-6.044,13.5-13.5,13.5S-5.5,6.456-5.5-1S0.544-14.5,8-14.5S21.5-8.456,21.5-1z"/>
<path d="M-28,8c0-19.882,16.118-36,36-36S44-11.882,44,8S27.882,44,8,44S-28,27.882-28,8z M8-23.5
	C-9.397-23.499-23.499-9.395-23.498,8.002c0,7.147,2.431,14.08,6.892,19.663C-13.411,22.517-6.378,17,8,17
	s21.406,5.513,24.606,10.665c10.861-13.59,8.648-33.412-4.943-44.273C22.08-21.069,15.147-23.5,8-23.5z"/>
</svg>
